# Blender v2.81 (sub 16) OBJ File: ''
# www.blender.org
mtllib Bulto.mtl
o Bulto__bulto
v -0.146248 -0.237942 0.109744
v -0.146248 0.237942 0.109744
v -0.146248 -0.237942 -0.109744
v -0.146248 0.237942 -0.109744
v 0.146248 -0.237942 0.109744
v 0.146248 0.237942 0.109744
v 0.146248 -0.237942 -0.109744
v 0.146248 0.237942 -0.109744
v -0.218959 -0.380886 0.000000
v -0.162718 0.000000 0.122103
v -0.218959 0.398143 -0.000000
v -0.162718 -0.000000 -0.122103
v 0.000000 -0.264738 -0.122103
v 0.000000 0.264738 -0.122103
v 0.162718 -0.000000 -0.122103
v 0.206688 -0.380886 0.000000
v 0.206688 0.398143 -0.000000
v 0.162718 0.000000 0.122103
v 0.000000 -0.264738 0.122103
v 0.000000 0.264738 0.122103
v 0.000000 0.458628 -0.000000
v 0.000000 -0.441372 0.000000
v 0.000000 0.000000 0.150000
v 0.243865 0.000000 0.000000
v 0.000000 -0.000000 -0.150000
v -0.256135 0.000000 0.000000
v -0.192352 -0.316120 0.059126
v -0.157585 0.128193 0.118251
v -0.192352 0.334040 -0.059126
v -0.157585 -0.128193 -0.118251
v -0.078792 -0.256387 -0.118251
v 0.078792 0.256386 -0.118251
v 0.157585 -0.128193 -0.118251
v 0.181104 -0.316120 -0.059125
v 0.181104 0.334040 0.059125
v 0.157585 -0.128193 0.118251
v 0.078792 -0.256386 0.118251
v -0.078792 0.256387 0.118251
v -0.192352 -0.316120 -0.059125
v -0.157585 -0.128193 0.118251
v -0.192352 0.334040 0.059125
v -0.157585 0.128193 -0.118251
v 0.078792 -0.256387 -0.118251
v -0.078792 0.256386 -0.118251
v 0.157585 0.128193 -0.118251
v 0.181104 -0.316120 0.059126
v 0.181104 0.334040 -0.059126
v 0.157585 0.128193 0.118251
v -0.078792 -0.256386 0.118251
v 0.078792 0.256387 0.118251
v 0.000000 0.381075 0.069972
v 0.000000 0.381075 -0.069972
v 0.093247 0.436826 -0.000000
v -0.093247 0.436826 -0.000000
v 0.000000 -0.363155 0.069972
v 0.000000 -0.363155 -0.069972
v -0.093247 -0.419570 0.000000
v 0.093247 -0.419570 0.000000
v -0.093247 0.000000 0.139945
v 0.093247 0.000000 0.139945
v 0.000000 -0.151711 0.139945
v 0.000000 0.151711 0.139944
v 0.210013 0.000000 0.069972
v 0.210013 -0.000000 -0.069972
v 0.230464 -0.151711 0.000000
v 0.230464 0.151711 -0.000000
v 0.093247 -0.000000 -0.139945
v -0.093247 -0.000000 -0.139945
v 0.000000 -0.151711 -0.139944
v 0.000000 0.151711 -0.139945
v -0.221261 -0.000000 -0.069972
v -0.221261 0.000000 0.069972
v -0.242735 -0.151711 0.000000
v -0.242735 0.151711 -0.000000
v -0.211370 0.143664 0.066261
v -0.211370 -0.143664 0.066261
v -0.211370 -0.143664 -0.066261
v -0.088301 0.143664 -0.132522
v -0.088301 -0.143664 -0.132522
v 0.088301 -0.143664 -0.132522
v 0.200121 0.143664 -0.066261
v 0.200121 -0.143664 -0.066261
v 0.200121 -0.143664 0.066261
v 0.088301 0.143664 0.132522
v 0.088301 -0.143664 0.132522
v -0.088301 -0.143664 0.132522
v 0.088301 -0.347061 -0.066261
v -0.088301 -0.347061 -0.066261
v -0.088301 -0.347061 0.066261
v -0.088301 0.364982 -0.066261
v 0.088301 0.364982 -0.066261
v 0.088301 0.364982 0.066261
v -0.088301 0.364982 0.066261
v 0.088301 -0.347061 0.066261
v -0.088301 0.143664 0.132522
v 0.200121 0.143664 0.066261
v 0.088301 0.143664 -0.132522
v -0.211370 0.143664 -0.066261
vt 0.069351 0.184832
vt 0.078844 0.141378
vt 0.090527 0.165264
vt 0.086807 0.190271
vt 0.143349 0.188188
vt 0.141523 0.162536
vt 0.156755 0.166743
vt 0.159615 0.191575
vt 0.188548 0.246040
vt 0.179955 0.291982
vt 0.169119 0.267149
vt 0.171981 0.240978
vt 0.112613 0.245668
vt 0.115743 0.272606
vt 0.099377 0.269108
vt 0.095307 0.242793
vt 0.153655 0.123871
vt 0.176924 0.131598
vt 0.166453 0.152849
vt 0.150344 0.149247
vt 0.113068 0.301931
vt 0.087217 0.294336
vt 0.157307 0.300664
vt 0.135316 0.304923
vt 0.134479 0.274030
vt 0.153102 0.271672
vt 0.145357 0.134986
vt 0.124454 0.131063
vt 0.125065 0.105367
vt 0.149318 0.111009
vt 0.103346 0.134025
vt 0.068252 0.121249
vt 0.100548 0.109834
vt 0.109095 0.124505
vt 0.131334 0.120580
vt 0.131737 0.147623
vt 0.113149 0.149859
vt 0.100545 0.302505
vt 0.121681 0.306110
vt 0.121465 0.332101
vt 0.096992 0.326825
vt 0.142855 0.302863
vt 0.164906 0.295400
vt 0.175310 0.315764
vt 0.146030 0.327236
vt 0.111169 0.176785
vt 0.110647 0.211227
vt 0.093336 0.211583
vt 0.094041 0.180360
vt 0.153315 0.175956
vt 0.155287 0.210249
vt 0.132975 0.210750
vt 0.132226 0.174689
vt 0.154870 0.244644
vt 0.133800 0.246862
vt 0.186802 0.172981
vt 0.190202 0.209436
vt 0.172563 0.209850
vt 0.170531 0.178811
vt 0.174059 0.256055
vt 0.177088 0.221423
vt 0.196783 0.221779
vt 0.191677 0.260851
vt 0.175318 0.186678
vt 0.166907 0.143106
vt 0.177997 0.123389
vt 0.193092 0.182547
vt 0.142248 0.253413
vt 0.143933 0.220842
vt 0.160338 0.221127
vt 0.158579 0.250608
vt 0.102228 0.252856
vt 0.101544 0.220158
vt 0.122746 0.220488
vt 0.122232 0.254731
vt 0.103222 0.187447
vt 0.106047 0.161853
vt 0.123828 0.160399
vt 0.123332 0.186197
vt 0.068395 0.254498
vt 0.066425 0.219648
vt 0.085106 0.219915
vt 0.085946 0.249555
vt 0.075526 0.175261
vt 0.073663 0.211977
vt 0.052716 0.212384
vt 0.056549 0.170905
vt 0.076956 0.248627
vt 0.076183 0.315599
vt 0.058165 0.253665
vt 0.083432 0.133287
vt 0.071533 0.112232
vt 0.097019 0.154030
vt 0.076130 0.294308
vt 0.088917 0.274538
vt 0.064948 0.314364
vt 0.050400 0.258738
vt 0.046534 0.219375
vt 0.104255 0.278411
vt 0.121916 0.280432
vt 0.139573 0.278788
vt 0.154849 0.275280
vt 0.187758 0.110087
vt 0.205328 0.167822
vt 0.210942 0.208942
vt 0.105206 0.098913
vt 0.130949 0.093207
vt 0.191754 0.312680
vt 0.161624 0.325892
vt 0.136115 0.331981
vt 0.110267 0.327426
vt 0.156850 0.098183
vt 0.207293 0.250283
vt 0.051482 0.180152
vn -0.7899 0.0857 -0.6072
vn -0.5701 0.3489 -0.7438
vn -0.3939 0.2006 -0.8970
vn -0.4572 0.0806 -0.8857
vn 0.1501 0.0937 -0.9842
vn 0.1446 0.2793 -0.9492
vn 0.4448 0.2026 -0.8724
vn 0.5059 0.0832 -0.8586
vn 0.8259 0.0870 0.5571
vn 0.5854 0.3510 0.7308
vn 0.4448 0.2026 0.8724
vn 0.5059 0.0832 0.8586
vn -0.1501 0.0937 0.9842
vn -0.1406 0.2779 0.9503
vn -0.3939 0.2006 0.8970
vn -0.4572 0.0806 0.8857
vn 0.1824 -0.5621 0.8067
vn 0.5939 -0.3635 0.7177
vn 0.4462 -0.2286 0.8653
vn 0.1511 -0.3130 0.9377
vn -0.1682 0.5362 0.8271
vn -0.5701 0.3489 0.7438
vn 0.1778 0.5367 0.8248
vn 0.0000 0.5602 0.8284
vn -0.0000 0.2907 0.9568
vn 0.1446 0.2793 0.9492
vn 0.1778 0.5367 -0.8248
vn 0.0000 0.5602 -0.8284
vn 0.0000 1.0000 -0.0000
vn 0.2834 0.9590 -0.0000
vn -0.1682 0.5362 -0.8271
vn -0.7169 0.6972 0.0000
vn -0.2689 0.9632 -0.0000
vn -0.1726 -0.5616 0.8092
vn 0.0000 -0.5841 0.8117
vn 0.0000 -0.3249 0.9457
vn -0.1468 -0.3113 0.9389
vn -0.1726 -0.5616 -0.8092
vn 0.0000 -0.5841 -0.8117
vn 0.0000 -1.0000 0.0000
vn -0.2691 -0.9631 0.0000
vn 0.1824 -0.5621 -0.8067
vn 0.5939 -0.3635 -0.7177
vn 0.7238 -0.6900 0.0000
vn 0.2836 -0.9589 0.0000
vn -0.1501 -0.0937 0.9842
vn -0.1660 0.0000 0.9861
vn -0.4711 0.0000 0.8821
vn -0.4588 -0.0822 0.8848
vn 0.1501 -0.0937 0.9842
vn 0.1660 0.0000 0.9861
vn 0.0000 0.0000 1.0000
vn 0.0000 -0.1047 0.9945
vn 0.1501 0.0937 0.9842
vn -0.0000 0.1047 0.9945
vn 0.8266 -0.0909 0.5555
vn 0.8364 0.0000 0.5481
vn 0.5193 0.0000 0.8546
vn 0.5077 -0.0848 0.8574
vn 0.8266 -0.0909 -0.5555
vn 0.8364 -0.0000 -0.5481
vn 1.0000 -0.0000 -0.0000
vn 0.9950 -0.1003 0.0000
vn 0.8259 0.0870 -0.5571
vn 0.5854 0.3510 -0.7308
vn 0.7264 0.6873 -0.0000
vn 0.9954 0.0955 -0.0000
vn 0.1501 -0.0937 -0.9842
vn 0.1660 -0.0000 -0.9861
vn 0.5193 -0.0000 -0.8546
vn 0.5077 -0.0848 -0.8574
vn -0.1501 -0.0937 -0.9842
vn -0.1660 -0.0000 -0.9861
vn 0.0000 -0.0000 -1.0000
vn 0.0000 -0.1047 -0.9945
vn -0.1501 0.0937 -0.9842
vn -0.1406 0.2779 -0.9503
vn 0.0000 0.2907 -0.9568
vn 0.0000 0.1047 -0.9945
vn -0.7905 -0.0895 -0.6058
vn -0.8018 -0.0000 -0.5976
vn -0.4711 -0.0000 -0.8821
vn -0.4588 -0.0822 -0.8848
vn -0.7905 -0.0895 0.6058
vn -0.8018 0.0000 0.5976
vn -1.0000 -0.0000 0.0000
vn -0.9949 -0.1005 0.0000
vn -0.7899 0.0857 0.6072
vn -0.9954 0.0957 -0.0000
vn -0.5776 -0.3597 0.7328
vn -0.7142 -0.6999 0.0000
vn -0.3954 -0.2271 0.8900
vn -0.5776 -0.3597 -0.7328
vn -0.3954 -0.2271 -0.8900
vn -0.1468 -0.3113 -0.9389
vn -0.0000 -0.3249 -0.9457
vn 0.1511 -0.3130 -0.9377
vn 0.4462 -0.2286 -0.8653
usemtl Probs.002
s 1
f 98/1/1 29/2/2 4/3/3 42/4/4
f 97/5/5 32/6/6 8/7/7 45/8/8
f 96/9/9 35/10/10 6/11/11 48/12/12
f 95/13/13 38/14/14 2/15/15 28/16/16
f 94/17/17 46/18/18 5/19/19 37/20/20
f 93/21/21 41/22/22 2/15/15 38/14/14
f 92/23/23 51/24/24 20/25/25 50/26/26
f 91/27/27 52/28/28 21/29/29 53/30/30
f 90/31/31 29/2/2 11/32/32 54/33/33
f 89/34/34 55/35/35 19/36/36 49/37/37
f 88/38/38 56/39/39 22/40/40 57/41/41
f 87/42/42 34/43/43 16/44/44 58/45/45
f 86/46/46 59/47/47 10/48/48 40/49/49
f 85/50/50 60/51/51 23/52/52 61/53/53
f 84/54/54 50/26/26 20/25/25 62/55/55
f 83/56/56 63/57/57 18/58/58 36/59/59
f 82/60/60 64/61/61 24/62/62 65/63/63
f 81/64/64 47/65/65 17/66/66 66/67/67
f 80/68/68 67/69/69 15/70/70 33/71/71
f 79/72/72 68/73/73 25/74/74 69/75/75
f 78/76/76 44/77/77 14/78/78 70/79/79
f 77/80/80 71/81/81 12/82/82 30/83/83
f 76/84/84 72/85/85 26/86/86 73/87/87
f 75/88/88 41/22/22 11/89/32 74/90/89
f 72/85/85 75/88/88 74/90/89 26/86/86
f 10/48/48 28/16/16 75/88/88 72/85/85
f 28/16/16 2/15/15 41/22/22 75/88/88
f 27/91/90 76/84/84 73/87/87 9/92/91
f 1/93/92 40/49/49 76/84/84 27/91/90
f 40/49/49 10/48/48 72/85/85 76/84/84
f 39/94/93 77/80/80 30/83/83 3/95/94
f 9/96/91 73/97/87 77/80/80 39/94/93
f 73/97/87 26/98/86 71/81/81 77/80/80
f 68/73/73 78/76/76 70/79/79 25/74/74
f 12/82/82 42/4/4 78/76/76 68/73/73
f 42/4/4 4/3/3 44/77/77 78/76/76
f 31/99/95 79/72/72 69/75/75 13/100/96
f 3/95/94 30/83/83 79/72/72 31/99/95
f 30/83/83 12/82/82 68/73/73 79/72/72
f 43/101/97 80/68/68 33/71/71 7/102/98
f 13/100/96 69/75/75 80/68/68 43/101/97
f 69/75/75 25/74/74 67/69/69 80/68/68
f 64/61/61 81/64/64 66/67/67 24/62/62
f 15/70/70 45/8/8 81/64/64 64/61/61
f 45/8/8 8/7/7 47/65/65 81/64/64
f 34/43/43 82/60/60 65/63/63 16/44/44
f 7/102/98 33/71/71 82/60/60 34/43/43
f 33/71/71 15/70/70 64/61/61 82/60/60
f 46/18/18 83/56/56 36/59/59 5/19/19
f 16/103/44 65/104/63 83/56/56 46/18/18
f 65/104/63 24/105/62 63/57/57 83/56/56
f 60/51/51 84/54/54 62/55/55 23/52/52
f 18/58/58 48/12/12 84/54/54 60/51/51
f 48/12/12 6/11/11 50/26/26 84/54/54
f 37/20/20 85/50/50 61/53/53 19/36/36
f 5/19/19 36/59/59 85/50/50 37/20/20
f 36/59/59 18/58/58 60/51/51 85/50/50
f 49/37/37 86/46/46 40/49/49 1/93/92
f 19/36/36 61/53/53 86/46/46 49/37/37
f 61/53/53 23/52/52 59/47/47 86/46/46
f 56/39/39 87/42/42 58/45/45 22/40/40
f 13/100/96 43/101/97 87/42/42 56/39/39
f 43/101/97 7/102/98 34/43/43 87/42/42
f 39/94/93 88/38/38 57/41/41 9/96/91
f 3/95/94 31/99/95 88/38/38 39/94/93
f 31/99/95 13/100/96 56/39/39 88/38/38
f 27/91/90 89/34/34 49/37/37 1/93/92
f 9/92/91 57/106/41 89/34/34 27/91/90
f 57/106/41 22/107/40 55/35/35 89/34/34
f 52/28/28 90/31/31 54/33/33 21/29/29
f 14/78/78 44/77/77 90/31/31 52/28/28
f 44/77/77 4/3/3 29/2/2 90/31/31
f 47/65/65 91/27/27 53/30/30 17/66/66
f 8/7/7 32/6/6 91/27/27 47/65/65
f 32/6/6 14/78/78 52/28/28 91/27/27
f 35/10/10 92/23/23 50/26/26 6/11/11
f 17/108/66 53/109/30 92/23/23 35/10/10
f 53/109/30 21/110/29 51/24/24 92/23/23
f 51/24/24 93/21/21 38/14/14 20/25/25
f 21/110/29 54/111/33 93/21/21 51/24/24
f 54/111/33 11/89/32 41/22/22 93/21/21
f 55/35/35 94/17/17 37/20/20 19/36/36
f 22/107/40 58/112/45 94/17/17 55/35/35
f 58/112/45 16/103/44 46/18/18 94/17/17
f 59/47/47 95/13/13 28/16/16 10/48/48
f 23/52/52 62/55/55 95/13/13 59/47/47
f 62/55/55 20/25/25 38/14/14 95/13/13
f 63/57/57 96/9/9 48/12/12 18/58/58
f 24/105/62 66/113/67 96/9/9 63/57/57
f 66/113/67 17/108/66 35/10/10 96/9/9
f 67/69/69 97/5/5 45/8/8 15/70/70
f 25/74/74 70/79/79 97/5/5 67/69/69
f 70/79/79 14/78/78 32/6/6 97/5/5
f 71/81/81 98/1/1 42/4/4 12/82/82
f 26/98/86 74/114/89 98/1/1 71/81/81
f 74/114/89 11/32/32 29/2/2 98/1/1
