# Blender v2.81 (sub 16) OBJ File: ''
# www.blender.org
mtllib Mesa.mtl
o MESA
v -0.874529 -0.693630 -0.368544
v -0.874529 0.006370 -0.368544
v -0.874529 -0.693630 -0.468544
v -0.874529 0.006370 -0.468544
v -0.754529 -0.693630 -0.368544
v -0.754529 0.006370 -0.368544
v -0.754529 -0.693630 -0.468544
v -0.754529 0.006370 -0.468544
v -0.874529 -0.693630 0.475722
v -0.874529 0.006370 0.475721
v -0.874529 -0.693630 0.375722
v -0.874529 0.006370 0.375721
v -0.754529 -0.693630 0.475722
v -0.754529 0.006370 0.475721
v -0.754529 -0.693630 0.375722
v -0.754529 0.006370 0.375721
v 0.741226 -0.693630 0.475722
v 0.741226 0.006370 0.475721
v 0.741226 -0.693630 0.375722
v 0.741226 0.006370 0.375721
v 0.861226 -0.693630 0.475722
v 0.861226 0.006370 0.475721
v 0.861226 -0.693630 0.375722
v 0.861226 0.006370 0.375721
v 0.741226 -0.693630 -0.368544
v 0.741226 0.006370 -0.368544
v 0.741226 -0.693630 -0.468544
v 0.741226 0.006370 -0.468544
v 0.861226 -0.693630 -0.368544
v 0.861226 0.006370 -0.368544
v 0.861226 -0.693630 -0.468544
v 0.861226 0.006370 -0.468544
v -0.855344 -0.568098 0.400000
v -0.855344 -0.468098 0.400000
v -0.855344 -0.568098 -0.400000
v -0.855344 -0.468098 -0.400000
v -0.775344 -0.568098 0.400000
v -0.775344 -0.468098 0.400000
v -0.775344 -0.568098 -0.400000
v -0.775344 -0.468098 -0.400000
v 0.760542 -0.568098 0.400000
v 0.760542 -0.468098 0.400000
v 0.760542 -0.568098 -0.400000
v 0.760542 -0.468098 -0.400000
v 0.840542 -0.568098 0.400000
v 0.840542 -0.468098 0.400000
v 0.840542 -0.568098 -0.400000
v 0.840542 -0.468098 -0.400000
v -0.800000 -0.558452 0.050000
v -0.800000 -0.478452 0.050000
v -0.800000 -0.558452 -0.050000
v -0.800000 -0.478452 -0.050000
v 0.800000 -0.558452 0.050000
v 0.800000 -0.478452 0.050000
v 0.800000 -0.558452 -0.050000
v 0.800000 -0.478452 -0.050000
v -0.900000 -0.040000 0.500000
v -0.900000 0.040000 0.500000
v -0.900000 -0.040000 -0.500000
v -0.900000 0.040000 -0.500000
v 0.900000 -0.040000 0.500000
v 0.900000 0.040000 0.500000
v 0.900000 -0.040000 -0.500000
v 0.900000 0.040000 -0.500000
vt 0.948331 0.938834
vt 0.959871 0.938834
vt 0.959871 0.950374
vt 0.948331 0.950374
vt 0.959871 0.961914
vt 0.948331 0.961914
vt 0.959871 0.973454
vt 0.948331 0.973454
vt 0.959871 0.984994
vt 0.948331 0.984994
vt 0.936792 0.961914
vt 0.936792 0.973454
vt 0.971411 0.961914
vt 0.971411 0.973454
vt 0.948331 0.938834
vt 0.959871 0.938834
vt 0.959871 0.950374
vt 0.948331 0.950374
vt 0.959871 0.961914
vt 0.948331 0.961914
vt 0.959871 0.973454
vt 0.948331 0.973454
vt 0.959871 0.984994
vt 0.948331 0.984994
vt 0.936792 0.961914
vt 0.936792 0.973454
vt 0.971411 0.961914
vt 0.971411 0.973454
vt 0.948331 0.938834
vt 0.959871 0.938834
vt 0.959871 0.950374
vt 0.948331 0.950374
vt 0.959871 0.961914
vt 0.948331 0.961914
vt 0.959871 0.973454
vt 0.948331 0.973454
vt 0.959871 0.984994
vt 0.948331 0.984994
vt 0.936792 0.961914
vt 0.936792 0.973454
vt 0.971411 0.961914
vt 0.971411 0.973454
vt 0.948331 0.938834
vt 0.959871 0.938834
vt 0.959871 0.950374
vt 0.948331 0.950374
vt 0.959871 0.961914
vt 0.948331 0.961914
vt 0.959871 0.973454
vt 0.948331 0.973454
vt 0.959871 0.984994
vt 0.948331 0.984994
vt 0.936792 0.961914
vt 0.936792 0.973454
vt 0.971411 0.961914
vt 0.971411 0.973454
vt 0.948331 0.938834
vt 0.959871 0.938834
vt 0.959871 0.950374
vt 0.948331 0.950374
vt 0.959871 0.961914
vt 0.948331 0.961914
vt 0.959871 0.973454
vt 0.948331 0.973454
vt 0.959871 0.984994
vt 0.948331 0.984994
vt 0.936792 0.961914
vt 0.936792 0.973454
vt 0.971411 0.961914
vt 0.971411 0.973454
vt 0.948331 0.938834
vt 0.959871 0.938834
vt 0.959871 0.950374
vt 0.948331 0.950374
vt 0.959871 0.961914
vt 0.948331 0.961914
vt 0.959871 0.973454
vt 0.948331 0.973454
vt 0.959871 0.984994
vt 0.948331 0.984994
vt 0.936792 0.961914
vt 0.936792 0.973454
vt 0.971411 0.961914
vt 0.971411 0.973454
vt 0.948331 0.938834
vt 0.959871 0.938834
vt 0.959871 0.950374
vt 0.948331 0.950374
vt 0.959871 0.961914
vt 0.948331 0.961914
vt 0.959871 0.973454
vt 0.948331 0.973454
vt 0.959871 0.984994
vt 0.948331 0.984994
vt 0.936792 0.961914
vt 0.936792 0.973454
vt 0.971411 0.961914
vt 0.971411 0.973454
vt 0.281576 0.603503
vt 0.281576 0.579418
vt 0.491179 0.579418
vt 0.491179 0.603503
vt 0.281574 0.603505
vt 0.281574 0.579390
vt 0.491181 0.579390
vt 0.491181 0.603505
vt 0.491179 0.579418
vt 0.491179 0.603503
vt 0.281576 0.603503
vt 0.281576 0.579418
vt 0.281574 0.603505
vt 0.281574 0.579156
vt 0.491181 0.579157
vt 0.491181 0.603505
vt 0.125000 0.500000
vt 0.375000 0.500000
vt 0.375000 0.750000
vt 0.125000 0.750000
vt 0.278637 0.548626
vt 0.493484 0.548626
vt 0.493484 0.672030
vt 0.278637 0.672030
vn -1.0000 -0.0000 0.0000
vn 0.0000 -0.0000 -1.0000
vn 1.0000 0.0000 0.0000
vn 0.0000 0.0000 1.0000
vn 0.0000 -1.0000 0.0000
vn 0.0000 1.0000 -0.0000
usemtl Probs.003
s 1
f 1/1/1 2/2/1 4/3/1 3/4/1
f 3/4/2 4/3/2 8/5/2 7/6/2
f 7/6/3 8/5/3 6/7/3 5/8/3
f 5/8/4 6/7/4 2/9/4 1/10/4
f 3/11/5 7/6/5 5/8/5 1/12/5
f 8/5/6 4/13/6 2/14/6 6/7/6
f 9/15/1 10/16/1 12/17/1 11/18/1
f 11/18/2 12/17/2 16/19/2 15/20/2
f 15/20/3 16/19/3 14/21/3 13/22/3
f 13/22/4 14/21/4 10/23/4 9/24/4
f 11/25/5 15/20/5 13/22/5 9/26/5
f 16/19/6 12/27/6 10/28/6 14/21/6
f 17/29/1 18/30/1 20/31/1 19/32/1
f 19/32/2 20/31/2 24/33/2 23/34/2
f 23/34/3 24/33/3 22/35/3 21/36/3
f 21/36/4 22/35/4 18/37/4 17/38/4
f 19/39/5 23/34/5 21/36/5 17/40/5
f 24/33/6 20/41/6 18/42/6 22/35/6
f 25/43/1 26/44/1 28/45/1 27/46/1
f 27/46/2 28/45/2 32/47/2 31/48/2
f 31/48/3 32/47/3 30/49/3 29/50/3
f 29/50/4 30/49/4 26/51/4 25/52/4
f 27/53/5 31/48/5 29/50/5 25/54/5
f 32/47/6 28/55/6 26/56/6 30/49/6
f 33/57/1 34/58/1 36/59/1 35/60/1
f 35/60/2 36/59/2 40/61/2 39/62/2
f 39/62/3 40/61/3 38/63/3 37/64/3
f 37/64/4 38/63/4 34/65/4 33/66/4
f 35/67/5 39/62/5 37/64/5 33/68/5
f 40/61/6 36/69/6 34/70/6 38/63/6
f 41/71/1 42/72/1 44/73/1 43/74/1
f 43/74/2 44/73/2 48/75/2 47/76/2
f 47/76/3 48/75/3 46/77/3 45/78/3
f 45/78/4 46/77/4 42/79/4 41/80/4
f 43/81/5 47/76/5 45/78/5 41/82/5
f 48/75/6 44/83/6 42/84/6 46/77/6
f 49/85/1 50/86/1 52/87/1 51/88/1
f 51/88/2 52/87/2 56/89/2 55/90/2
f 55/90/3 56/89/3 54/91/3 53/92/3
f 53/92/4 54/91/4 50/93/4 49/94/4
f 51/95/5 55/90/5 53/92/5 49/96/5
f 56/89/6 52/97/6 50/98/6 54/91/6
f 57/99/1 58/100/1 60/101/1 59/102/1
f 59/103/2 60/104/2 64/105/2 63/106/2
f 63/107/3 64/108/3 62/109/3 61/110/3
f 61/111/4 62/112/4 58/113/4 57/114/4
f 59/115/5 63/116/5 61/117/5 57/118/5
f 64/119/6 60/120/6 58/121/6 62/122/6
