# Blender v2.81 (sub 16) OBJ File: ''
# www.blender.org
mtllib Silla.mtl
o SILLA
v -0.242549 -0.482501 -0.268313
v -0.242549 -0.032501 -0.268313
v -0.224871 -0.482501 -0.260990
v -0.224871 -0.032501 -0.260990
v -0.217549 -0.482501 -0.243313
v -0.217549 -0.032501 -0.243313
v -0.224871 -0.482501 -0.225635
v -0.224871 -0.032501 -0.225635
v -0.242549 -0.482501 -0.218313
v -0.242549 -0.032501 -0.218313
v -0.260227 -0.482501 -0.225635
v -0.260227 -0.032501 -0.225635
v -0.267549 -0.482501 -0.243313
v -0.267549 -0.032501 -0.243313
v -0.260227 -0.482501 -0.260990
v -0.260227 -0.032501 -0.260990
v -0.282201 -0.019749 0.282201
v -0.300000 0.018472 0.300000
v -0.282201 -0.019749 -0.282201
v -0.300000 0.018472 -0.300000
v 0.282201 -0.019749 0.282201
v 0.300000 0.018472 0.300000
v 0.282201 -0.019749 -0.282201
v 0.300000 0.018472 -0.300000
v -0.270827 -0.038926 -0.270827
v -0.270827 -0.038926 0.270827
v 0.270827 -0.038926 -0.270827
v 0.270827 -0.038926 0.270827
v -0.282201 -0.060251 -0.282201
v -0.282201 -0.060251 0.282201
v 0.282201 -0.060251 -0.282201
v 0.282201 -0.060251 0.282201
v -0.270827 -0.061528 -0.270827
v -0.270827 -0.061528 0.270827
v 0.270827 -0.061528 -0.270827
v 0.270827 -0.061528 0.270827
v 0.243443 -0.482501 0.217549
v 0.243443 -0.032501 0.217549
v 0.261121 -0.482501 0.224871
v 0.261121 -0.032501 0.224871
v 0.268443 -0.482501 0.242549
v 0.268443 -0.032501 0.242549
v 0.261121 -0.482501 0.260227
v 0.261121 -0.032501 0.260227
v 0.243443 -0.482501 0.267549
v 0.243443 -0.032501 0.267549
v 0.225765 -0.482501 0.260227
v 0.225765 -0.032501 0.260227
v 0.218443 -0.482501 0.242549
v 0.218443 -0.032501 0.242549
v 0.225765 -0.482501 0.224871
v 0.225765 -0.032501 0.224871
v -0.242549 -0.482501 0.217549
v -0.242549 -0.032501 0.217549
v -0.224871 -0.482501 0.224871
v -0.224871 -0.032501 0.224871
v -0.217549 -0.482501 0.242549
v -0.217549 -0.032501 0.242549
v -0.224871 -0.482501 0.260227
v -0.224871 -0.032501 0.260227
v -0.242549 -0.482501 0.267549
v -0.242549 -0.032501 0.267549
v -0.260227 -0.482501 0.260227
v -0.260227 -0.032501 0.260227
v -0.267549 -0.482501 0.242549
v -0.267549 -0.032501 0.242549
v -0.260227 -0.482501 0.224871
v -0.260227 -0.032501 0.224871
v 0.243443 -0.482501 -0.268313
v 0.243443 -0.032501 -0.268313
v 0.261121 -0.482501 -0.260990
v 0.261121 -0.032501 -0.260990
v 0.268443 -0.482501 -0.243313
v 0.268443 -0.032501 -0.243313
v 0.261121 -0.482501 -0.225635
v 0.261121 -0.032501 -0.225635
v 0.243443 -0.482501 -0.218313
v 0.243443 -0.032501 -0.218313
v 0.225765 -0.482501 -0.225635
v 0.225765 -0.032501 -0.225635
v 0.218443 -0.482501 -0.243313
v 0.218443 -0.032501 -0.243313
v 0.225765 -0.482501 -0.260990
v 0.225765 -0.032501 -0.260990
v -0.272022 -0.000800 -0.219977
v -0.272022 0.594237 -0.296993
v -0.272022 -0.007218 -0.269564
v -0.272022 0.587819 -0.346579
v -0.192022 -0.000800 -0.219977
v -0.192022 0.594237 -0.296993
v -0.192022 -0.007218 -0.269564
v -0.192022 0.587819 -0.346579
v 0.198153 -0.000800 -0.219977
v 0.198153 0.594237 -0.296993
v 0.198153 -0.007218 -0.269564
v 0.198153 0.587819 -0.346579
v 0.278153 -0.000800 -0.219977
v 0.278153 0.594237 -0.296993
v 0.278153 -0.007218 -0.269564
v 0.278153 0.587819 -0.346579
v -0.250000 0.488048 -0.289434
v -0.250000 0.587196 -0.302458
v -0.250000 0.482839 -0.329094
v -0.250000 0.581987 -0.342117
v 0.250000 0.488048 -0.289434
v 0.250000 0.587196 -0.302458
v 0.250000 0.482839 -0.329094
v 0.250000 0.581987 -0.342117
v -0.250000 0.366880 -0.272965
v -0.250000 0.466029 -0.285989
v -0.250000 0.361671 -0.312624
v -0.250000 0.460819 -0.325648
v 0.250000 0.366880 -0.272965
v 0.250000 0.466029 -0.285989
v 0.250000 0.361671 -0.312624
v 0.250000 0.460819 -0.325648
v -0.250000 0.244536 -0.256496
v -0.250000 0.343685 -0.269519
v -0.250000 0.239327 -0.296155
v -0.250000 0.338475 -0.309179
v 0.250000 0.244536 -0.256496
v 0.250000 0.343685 -0.269519
v 0.250000 0.239327 -0.296155
v 0.250000 0.338475 -0.309179
vt 0.977009 0.961397
vt 0.977009 0.984392
vt 0.971261 0.984392
vt 0.971261 0.961397
vt 0.965512 0.984392
vt 0.965512 0.961397
vt 0.959763 0.984392
vt 0.959763 0.961397
vt 0.954014 0.984392
vt 0.954014 0.961397
vt 0.948266 0.984392
vt 0.948266 0.961397
vt 0.942517 0.984392
vt 0.942517 0.961397
vt 0.950322 0.957704
vt 0.942517 0.960937
vt 0.934712 0.957704
vt 0.931479 0.949899
vt 0.934712 0.942095
vt 0.942517 0.938862
vt 0.950322 0.942095
vt 0.953555 0.949899
vt 0.936768 0.984392
vt 0.936768 0.961397
vt 0.931019 0.984392
vt 0.931019 0.961397
vt 0.965512 0.960937
vt 0.973317 0.957704
vt 0.976550 0.949899
vt 0.973317 0.942095
vt 0.965512 0.938862
vt 0.957707 0.942095
vt 0.954474 0.949899
vt 0.957707 0.957704
vt 0.948266 0.938402
vt 0.959763 0.938402
vt 0.959763 0.949899
vt 0.948266 0.949899
vt 0.959763 0.961397
vt 0.948266 0.961397
vt 0.959763 0.972894
vt 0.948266 0.972894
vt 0.959763 0.984392
vt 0.948266 0.984392
vt 0.948266 0.984392
vt 0.948266 0.972894
vt 0.449024 0.861986
vt 0.449024 0.738210
vt 0.633369 0.738210
vt 0.633369 0.861986
vt 0.936768 0.961397
vt 0.948266 0.961397
vt 0.948266 0.972894
vt 0.936768 0.972894
vt 0.936768 0.972894
vt 0.936768 0.961397
vt 0.948266 0.961397
vt 0.948266 0.972894
vt 0.948266 0.961397
vt 0.948266 0.984392
vt 0.948266 0.949899
vt 0.948266 0.949899
vt 0.948266 0.938402
vt 0.948266 0.938402
vt 0.977009 0.961397
vt 0.977009 0.984392
vt 0.971261 0.984392
vt 0.971261 0.961397
vt 0.965512 0.984392
vt 0.965512 0.961397
vt 0.959763 0.984392
vt 0.959763 0.961397
vt 0.954014 0.984392
vt 0.954014 0.961397
vt 0.948266 0.984392
vt 0.948266 0.961397
vt 0.942517 0.984392
vt 0.942517 0.961397
vt 0.950322 0.957704
vt 0.942517 0.960937
vt 0.934712 0.957704
vt 0.931479 0.949899
vt 0.934712 0.942095
vt 0.942517 0.938862
vt 0.950322 0.942095
vt 0.953555 0.949899
vt 0.936768 0.984392
vt 0.936768 0.961397
vt 0.931019 0.984392
vt 0.931019 0.961397
vt 0.965512 0.960937
vt 0.973317 0.957704
vt 0.976550 0.949899
vt 0.973317 0.942095
vt 0.965512 0.938862
vt 0.957707 0.942095
vt 0.954474 0.949899
vt 0.957707 0.957704
vt 0.977009 0.961397
vt 0.977009 0.984392
vt 0.971261 0.984392
vt 0.971261 0.961397
vt 0.965512 0.984392
vt 0.965512 0.961397
vt 0.959763 0.984392
vt 0.959763 0.961397
vt 0.954014 0.984392
vt 0.954014 0.961397
vt 0.948266 0.984392
vt 0.948266 0.961397
vt 0.942517 0.984392
vt 0.942517 0.961397
vt 0.950322 0.957704
vt 0.942517 0.960937
vt 0.934712 0.957704
vt 0.931479 0.949899
vt 0.934712 0.942095
vt 0.942517 0.938862
vt 0.950322 0.942095
vt 0.953555 0.949899
vt 0.936768 0.984392
vt 0.936768 0.961397
vt 0.931019 0.984392
vt 0.931019 0.961397
vt 0.965512 0.960937
vt 0.973317 0.957704
vt 0.976550 0.949899
vt 0.973317 0.942095
vt 0.965512 0.938862
vt 0.957707 0.942095
vt 0.954474 0.949899
vt 0.957707 0.957704
vt 0.977009 0.961397
vt 0.977009 0.984392
vt 0.971261 0.984392
vt 0.971261 0.961397
vt 0.965512 0.984392
vt 0.965512 0.961397
vt 0.959763 0.984392
vt 0.959763 0.961397
vt 0.954014 0.984392
vt 0.954014 0.961397
vt 0.948266 0.984392
vt 0.948266 0.961397
vt 0.942517 0.984392
vt 0.942517 0.961397
vt 0.950322 0.957704
vt 0.942517 0.960937
vt 0.934712 0.957704
vt 0.931479 0.949899
vt 0.934712 0.942095
vt 0.942517 0.938862
vt 0.950322 0.942095
vt 0.953555 0.949899
vt 0.936768 0.984392
vt 0.936768 0.961397
vt 0.931019 0.984392
vt 0.931019 0.961397
vt 0.965512 0.960937
vt 0.973317 0.957704
vt 0.976550 0.949899
vt 0.973317 0.942095
vt 0.965512 0.938862
vt 0.957707 0.942095
vt 0.954474 0.949899
vt 0.957707 0.957704
vt 0.948266 0.938402
vt 0.959763 0.938402
vt 0.959763 0.949899
vt 0.948266 0.949899
vt 0.959763 0.961397
vt 0.948266 0.961397
vt 0.959763 0.972894
vt 0.948266 0.972894
vt 0.959763 0.984392
vt 0.948266 0.984392
vt 0.936768 0.961397
vt 0.936768 0.972894
vt 0.971261 0.961397
vt 0.971261 0.972894
vt 0.948266 0.938402
vt 0.959763 0.938402
vt 0.959763 0.949899
vt 0.948266 0.949899
vt 0.959763 0.961397
vt 0.948266 0.961397
vt 0.959763 0.972894
vt 0.948266 0.972894
vt 0.959763 0.984392
vt 0.948266 0.984392
vt 0.936768 0.961397
vt 0.936768 0.972894
vt 0.971261 0.961397
vt 0.971261 0.972894
vt 0.948266 0.938402
vt 0.959763 0.938402
vt 0.959763 0.949899
vt 0.948266 0.949899
vt 0.560449 0.743630
vt 0.583743 0.743630
vt 0.583743 0.860102
vt 0.560449 0.860102
vt 0.948266 0.961397
vt 0.959763 0.961397
vt 0.959763 0.972894
vt 0.948266 0.972894
vt 0.582444 0.864927
vt 0.560740 0.864927
vt 0.560740 0.737965
vt 0.582444 0.737965
vt 0.936768 0.961397
vt 0.936768 0.972894
vt 0.971261 0.961397
vt 0.971261 0.972894
vt 0.948266 0.938402
vt 0.959763 0.938402
vt 0.959763 0.949899
vt 0.948266 0.949899
vt 0.560497 0.743545
vt 0.583791 0.743545
vt 0.583791 0.860017
vt 0.560497 0.860017
vt 0.948266 0.961397
vt 0.959763 0.961397
vt 0.959763 0.972894
vt 0.948266 0.972894
vt 0.582587 0.864927
vt 0.560883 0.864927
vt 0.560883 0.737965
vt 0.582587 0.737965
vt 0.936768 0.961397
vt 0.936768 0.972894
vt 0.971261 0.961397
vt 0.971261 0.972894
vt 0.948266 0.938402
vt 0.959763 0.938402
vt 0.959763 0.949899
vt 0.948266 0.949899
vt 0.560431 0.743452
vt 0.583725 0.743452
vt 0.583725 0.859924
vt 0.560431 0.859924
vt 0.948266 0.961397
vt 0.959763 0.961397
vt 0.959763 0.972894
vt 0.948266 0.972894
vt 0.560766 0.737965
vt 0.582470 0.737965
vt 0.582470 0.864927
vt 0.560766 0.864927
vt 0.936768 0.961397
vt 0.936768 0.972894
vt 0.971261 0.961397
vt 0.971261 0.972894
vn 0.3827 -0.0000 -0.9239
vn 0.9239 -0.0000 -0.3827
vn 0.9239 0.0000 0.3827
vn 0.3827 0.0000 0.9239
vn -0.3827 0.0000 0.9239
vn -0.9239 0.0000 0.3827
vn 0.0000 1.0000 -0.0000
vn -0.9239 -0.0000 -0.3827
vn -0.3827 -0.0000 -0.9239
vn 0.0000 -1.0000 0.0000
vn -0.9065 -0.4221 0.0000
vn 0.0000 -0.4221 -0.9065
vn 0.9065 -0.4221 0.0000
vn 0.0000 -0.4221 0.9065
vn 0.0000 0.0000 1.0000
vn 1.0000 0.0000 0.0000
vn -1.0000 0.0000 0.0000
vn 0.1116 -0.9938 0.0000
vn 0.0000 -0.9938 0.1116
vn 0.0000 -0.9938 -0.1116
vn -0.1116 -0.9938 0.0000
vn 0.0000 0.0000 -1.0000
vn 0.0000 -0.1284 -0.9917
vn 0.0000 0.1284 0.9917
vn 0.0000 -0.9917 0.1284
vn 0.0000 0.9917 -0.1284
vn 0.0000 -0.1302 -0.9915
vn 0.0000 0.1302 0.9915
vn 0.0000 -0.9915 0.1302
vn 0.0000 0.9915 -0.1302
usemtl Probs.005
s 1
f 1/1/1 2/2/1 4/3/1 3/4/1
f 3/4/2 4/3/2 6/5/2 5/6/2
f 5/6/3 6/5/3 8/7/3 7/8/3
f 7/8/4 8/7/4 10/9/4 9/10/4
f 9/10/5 10/9/5 12/11/5 11/12/5
f 11/12/6 12/11/6 14/13/6 13/14/6
f 4/15/7 2/16/7 16/17/7 14/18/7 12/19/7 10/20/7 8/21/7 6/22/7
f 13/14/8 14/13/8 16/23/8 15/24/8
f 15/24/9 16/23/9 2/25/9 1/26/9
f 1/27/10 3/28/10 5/29/10 7/30/10 9/31/10 11/32/10 13/33/10 15/34/10
f 17/35/11 18/36/11 20/37/11 19/38/11
f 19/38/12 20/37/12 24/39/12 23/40/12
f 23/40/13 24/39/13 22/41/13 21/42/13
f 21/42/14 22/41/14 18/43/14 17/44/14
f 21/42/15 17/44/15 30/45/15 32/46/15
f 24/47/7 20/48/7 18/49/7 22/50/7
f 25/51/10 27/52/10 28/53/10 26/54/10
f 25/51/16 26/54/16 34/55/16 33/56/16
f 28/53/17 27/52/17 35/57/17 36/58/17
f 23/40/16 21/42/16 32/46/16 31/59/16
f 31/59/18 32/46/18 36/58/18 35/57/18
f 32/46/19 30/45/19 34/60/19 36/58/19
f 29/61/20 31/59/20 35/57/20 33/62/20
f 30/63/21 29/61/21 33/62/21 34/64/21
f 26/54/22 28/53/22 36/58/22 34/55/22
f 19/38/22 23/40/22 31/59/22 29/61/22
f 27/52/15 25/51/15 33/56/15 35/57/15
f 17/35/17 19/38/17 29/61/17 30/63/17
f 37/65/1 38/66/1 40/67/1 39/68/1
f 39/68/2 40/67/2 42/69/2 41/70/2
f 41/70/3 42/69/3 44/71/3 43/72/3
f 43/72/4 44/71/4 46/73/4 45/74/4
f 45/74/5 46/73/5 48/75/5 47/76/5
f 47/76/6 48/75/6 50/77/6 49/78/6
f 40/79/7 38/80/7 52/81/7 50/82/7 48/83/7 46/84/7 44/85/7 42/86/7
f 49/78/8 50/77/8 52/87/8 51/88/8
f 51/88/9 52/87/9 38/89/9 37/90/9
f 37/91/10 39/92/10 41/93/10 43/94/10 45/95/10 47/96/10 49/97/10 51/98/10
f 53/99/1 54/100/1 56/101/1 55/102/1
f 55/102/2 56/101/2 58/103/2 57/104/2
f 57/104/3 58/103/3 60/105/3 59/106/3
f 59/106/4 60/105/4 62/107/4 61/108/4
f 61/108/5 62/107/5 64/109/5 63/110/5
f 63/110/6 64/109/6 66/111/6 65/112/6
f 56/113/7 54/114/7 68/115/7 66/116/7 64/117/7 62/118/7 60/119/7 58/120/7
f 65/112/8 66/111/8 68/121/8 67/122/8
f 67/122/9 68/121/9 54/123/9 53/124/9
f 53/125/10 55/126/10 57/127/10 59/128/10 61/129/10 63/130/10 65/131/10 67/132/10
f 69/133/1 70/134/1 72/135/1 71/136/1
f 71/136/2 72/135/2 74/137/2 73/138/2
f 73/138/3 74/137/3 76/139/3 75/140/3
f 75/140/4 76/139/4 78/141/4 77/142/4
f 77/142/5 78/141/5 80/143/5 79/144/5
f 79/144/6 80/143/6 82/145/6 81/146/6
f 72/147/7 70/148/7 84/149/7 82/150/7 80/151/7 78/152/7 76/153/7 74/154/7
f 81/146/8 82/145/8 84/155/8 83/156/8
f 83/156/9 84/155/9 70/157/9 69/158/9
f 69/159/10 71/160/10 73/161/10 75/162/10 77/163/10 79/164/10 81/165/10 83/166/10
f 85/167/17 86/168/17 88/169/17 87/170/17
f 87/170/23 88/169/23 92/171/23 91/172/23
f 91/172/16 92/171/16 90/173/16 89/174/16
f 89/174/24 90/173/24 86/175/24 85/176/24
f 87/177/25 91/172/25 89/174/25 85/178/25
f 92/171/26 88/179/26 86/180/26 90/173/26
f 93/181/17 94/182/17 96/183/17 95/184/17
f 95/184/23 96/183/23 100/185/23 99/186/23
f 99/186/16 100/185/16 98/187/16 97/188/16
f 97/188/24 98/187/24 94/189/24 93/190/24
f 95/191/25 99/186/25 97/188/25 93/192/25
f 100/185/26 96/193/26 94/194/26 98/187/26
f 101/195/17 102/196/17 104/197/17 103/198/17
f 103/199/27 104/200/27 108/201/27 107/202/27
f 107/203/16 108/204/16 106/205/16 105/206/16
f 105/207/28 106/208/28 102/209/28 101/210/28
f 103/211/29 107/203/29 105/206/29 101/212/29
f 108/204/30 104/213/30 102/214/30 106/205/30
f 109/215/17 110/216/17 112/217/17 111/218/17
f 111/219/27 112/220/27 116/221/27 115/222/27
f 115/223/16 116/224/16 114/225/16 113/226/16
f 113/227/28 114/228/28 110/229/28 109/230/28
f 111/231/29 115/223/29 113/226/29 109/232/29
f 116/224/30 112/233/30 110/234/30 114/225/30
f 117/235/17 118/236/17 120/237/17 119/238/17
f 119/239/27 120/240/27 124/241/27 123/242/27
f 123/243/16 124/244/16 122/245/16 121/246/16
f 121/247/28 122/248/28 118/249/28 117/250/28
f 119/251/29 123/243/29 121/246/29 117/252/29
f 124/244/30 120/253/30 118/254/30 122/245/30
